<svg width="26" height="26" fill="none" xmlns="http://www.w3.org/2000/svg"><path d="M25.455 9.707l-8.269-1.192-3.697-7.436a.544.544 0 0 0-.977 0L8.815 8.515.545 9.707a.538.538 0 1 0-.302.922l5.984 5.788-1.412 8.173a.54.54 0 0 0 .216.53.55.55 0 0 0 .574.04L13 21.301l7.396 3.86a.55.55 0 0 0 .573-.042.54.54 0 0 0 .217-.529l-1.413-8.173 5.983-5.787a.538.538 0 0 0-.301-.923zm-6.647 6.134a.539.539 0 0 0-.157.479l1.275 7.373-6.672-3.481a.55.55 0 0 0-.507 0l-6.671 3.48L7.35 16.32a.538.538 0 0 0-.157-.479l-5.397-5.22 7.46-1.076a.545.545 0 0 0 .41-.296L13 2.541l3.336 6.708c.079.16.233.27.41.296l7.46 1.075-5.399 5.221z" fill="#42196D"/></svg>